<svg xmlns="http://www.w3.org/2000/svg" xmlns:xlink="http://www.w3.org/1999/xlink" width="47.63040351867676" height="60.8023681640625" viewBox="0 0 47.63040351867676 60.8023681640625" fill="none">
<path d="M21.4566 52.4839L0.25 56.6428L0.25 60.4816L23.5401 54.6158L21.4566 52.4839Z" stroke="rgba(3, 29, 79, 1)" stroke-width="0.5"      fill="#DCE8FE" >
</path>
<path d="M26.4279 0.25L31.1024 10.0416L43.3339 10.0416L47.2608 0.25L26.4279 0.25Z" stroke="rgba(3, 29, 79, 1)" stroke-width="0.5"      fill="#DCE8FE" >
</path>
<path d="M31.6146 10.0416L31.6146 34.1386L42.0584 34.1386L42.0584 10.0416L31.6146 10.0416Z" stroke="rgba(3, 29, 79, 1)" stroke-width="0.5"      fill="#DCE8FE" >
</path>
<path d="M42.0584 34.1387C42.0584 34.1387 42.2905 41.3716 39.0936 40.8974C37.9573 40.7289 37.0047 39.3129 35.6627 38.0431C34.4877 36.9314 31.6146 34.1387 31.6146 34.1387L42.0584 34.1387Z" stroke="rgba(3, 29, 79, 1)" stroke-width="0.5"      fill="#DCE8FE" >
</path>
<path d="M32.0504 34.783L16.6482 50.4433L22.7412 56.4828L38.5115 40.9266L32.0504 34.783Z" stroke="rgba(3, 29, 79, 1)" stroke-width="0.5"      fill="#DCE8FE" >
</path>
</svg>
