<?xml version="1.0" encoding="UTF-8"?>
<svg width="48px" height="62px" viewBox="0 0 48 62" version="1.1" xmlns="http://www.w3.org/2000/svg" xmlns:xlink="http://www.w3.org/1999/xlink">
    <title>001</title>
    <g id="页面-1" stroke="none" stroke-width="1" fill="none" fill-rule="evenodd">
        <g id="iPhone-SE" transform="translate(-117.000000, -277.000000)" fill="#DCE8FE" stroke="#031D4F" stroke-width="0.5">
            <g id="2" transform="translate(117.344625, 277.992055)">
                <g id="001" transform="translate(0.000000, 0.000000)">
                    <polygon id="路径-4" points="21.2065744 52.2339068 0 56.3928534 0 60.2316431 23.2901063 54.3658003"></polygon>
                    <g id="编组-2" transform="translate(16.398206, 0.000000)">
                        <polygon id="路径-8" points="9.77972153 0 14.4542033 9.79164492 26.6856669 9.79164492 30.6125833 0"></polygon>
                        <polygon id="路径-9" points="14.9663911 9.79164492 14.9663911 33.8886406 25.4102069 33.8886406 25.4102069 9.79164492"></polygon>
                        <path d="M25.4102069,33.8886406 C25.5649215,38.7105735 24.5766657,40.9634908 22.4454397,40.6473926 C21.3091218,40.4788567 20.3564775,39.0628324 19.014463,37.7931131 C18.231125,37.0519741 16.8817677,35.7504833 14.9663911,33.8886406 L25.4102069,33.8886406 Z" id="路径-10"></path>
                        <polygon id="路径-11" points="15.4021767 34.5329185 0 50.1932832 6.09302666 56.232775 21.8632923 40.6765628"></polygon>
                    </g>
                </g>
            </g>
        </g>
    </g>
</svg>