<?xml version="1.0" encoding="UTF-8"?>
<svg width="185px" height="77px" viewBox="0 0 185 77" version="1.1" xmlns="http://www.w3.org/2000/svg" xmlns:xlink="http://www.w3.org/1999/xlink">
    <title>gzj</title>
    <defs>
        <linearGradient x1="0%" y1="50%" x2="91.2265891%" y2="50.1645909%" id="linearGradient-1">
            <stop stop-color="#FBFAFF" offset="0%"></stop>
            <stop stop-color="#A2B8F6" offset="100%"></stop>
        </linearGradient>
        <linearGradient x1="29.6432797%" y1="34.7687647%" x2="61.6588196%" y2="56.7049341%" id="linearGradient-2">
            <stop stop-color="#F0F5FF" offset="0%"></stop>
            <stop stop-color="#CAD5FA" offset="100%"></stop>
        </linearGradient>
        <linearGradient x1="23.9110086%" y1="38.1519294%" x2="71.8776722%" y2="72.203904%" id="linearGradient-3">
            <stop stop-color="#EFF1FE" offset="0%"></stop>
            <stop stop-color="#BECDF9" offset="100%"></stop>
        </linearGradient>
        <linearGradient x1="47.6089642%" y1="11.0836325%" x2="53.0104978%" y2="88.8999244%" id="linearGradient-4">
            <stop stop-color="#EDEFFD" offset="0%"></stop>
            <stop stop-color="#C4D1FA" offset="100%"></stop>
        </linearGradient>
        <linearGradient x1="27.9995164%" y1="8.27890344%" x2="64.3255672%" y2="92.4395002%" id="linearGradient-5">
            <stop stop-color="#E7EBFD" offset="0%"></stop>
            <stop stop-color="#C1CFF9" offset="100%"></stop>
        </linearGradient>
        <linearGradient x1="20.9839125%" y1="50%" x2="73.9246863%" y2="69.993604%" id="linearGradient-6">
            <stop stop-color="#FBFAFF" offset="0%"></stop>
            <stop stop-color="#A2B8F6" offset="100%"></stop>
        </linearGradient>
    </defs>
    <g id="页面-1" stroke="none" stroke-width="1" fill="none" fill-rule="evenodd">
        <g id="iPhone-SE" transform="translate(-347.000000, -450.000000)">
            <g id="gzj" transform="translate(347.292571, 450.970607)">
                <g id="编组-208">
                    <polygon id="路径-118备份" stroke="#0F2D67" stroke-width="0.5" fill="url(#linearGradient-1)" points="138.236959 21.0798977 20.0170332 12.2138123 53.0908712 7.62202009 168.343695 15.7935509"></polygon>
                    <path d="M167.623298,16.4013754 L167.623298,22.5684309 L138.49637,27.7616187 L138.49637,21.3501324 L167.623298,16.4013754 Z" id="路径-119备份" stroke="#CDDBF6" stroke-width="0.640042246" fill="#0E2B61"></path>
                    <path d="M138.176349,28.1437448 C124.899136,45.5617066 118.26053,54.2706874 118.26053,54.2706874 C118.26053,54.2706874 128.130135,51.0630416 147.869347,44.64775 L167.943319,22.8364406 L138.176349,28.1437448 Z" id="路径-120备份" stroke="#031D4F" stroke-width="0.5" fill="url(#linearGradient-2)"></path>
                    <polygon id="路径-121备份" fill="#455AAA" points="117.818287 54.2706874 118.26053 75.6 121.095631 75.066996 121.747419 69.6728371 147.444718 59.2339178 144.330298 45.8533637"></polygon>
                    <polygon id="路径-123备份" fill="#0E2B61" points="117.818287 57.6241936 143.363526 49.4143486 144.780783 51.3204843 143.101924 54.2706874"></polygon>
                    <path d="M159.637109,32.1164904 C164.498127,30.2608759 168.875736,30.4418707 172.767235,32.6836966 C176.756144,34.9816385 180.226956,39.4229804 183.198003,45.9787219 C183.388393,46.4259184 184.102191,48.1023437 184.052032,54.8186865 C183.000495,60.1104344 180.863853,64.2142796 177.628426,67.1217787 C174.447473,69.9803247 170.208932,71.6787207 164.91956,72.230938 L164.91956,72.230938 Z" id="路径-126备份" stroke="#CDDBF6" stroke-width="0.640042246" fill="#0F2D67"></path>
                    <polygon id="路径-127备份" fill="#455AAA" points="107.298448 18.2453878 134.335536 13.9673917 165.887993 16.0223955 137.763946 21.0798977"></polygon>
                    <rect id="矩形备份-18" stroke="#DCE8FE" stroke-width="0.5" fill="#F5F3FD" x="136.760912" y="6.72893879" width="1.93562582" height="6.91294936"></rect>
                    <ellipse id="椭圆形备份-21" fill="#455AAA" cx="137.525756" cy="3.36446939" rx="2.940013" ry="3.36446939"></ellipse>
                    <path d="M20.3370544,12.466243 L137.856328,21.3765733 L137.856328,28.0337849 L117.498265,54.1607275 L117.498265,75.2799789 L114.556657,75.2799789 L113.096886,70.6261067 L47.9081234,58.6191376 L47.00437,62.1921789 L44.5549126,61.5108942 L44.5549126,57.3248912 L43.4579916,31.6644179 L20.3370544,28.0237676 L20.3370544,12.466243 Z" id="路径-131备份" stroke="#CDDBF6" stroke-width="0.640042246" fill="#0F2D67"></path>
                    <polygon id="路径-134备份" fill="#455AAA" points="33.8306244 48.6758455 43.7261892 45.14603 44.0120773 51.3060263 34.1819353 55.1072278"></polygon>
                    <path d="M29.0656681,46.6990146 L29.4199495,46.7513977 L33.7210991,47.3873553 L34.1819353,58.1598029 L25.3850101,54.9668614 L26.1242058,47.3873553" id="路径-133备份" stroke="#CDDBF6" stroke-width="0.640042246" fill="#0F2D67"></path>
                    <polygon id="路径-139备份" fill="#324488" points="8.64844648 57.7589044 8.64844648 58.8443077 2.44588736 59.9647885 2.99465541 61.4231195 10.6260747 60.1010338 10.6260747 58.8443077"></polygon>
                    <polygon id="路径-138备份" fill="#4257A9" points="20.0170332 59.5254014 20.0170332 60.8484004 14.2078897 61.9780523 14.2078897 59.5254014 12.0536403 59.2735812 12.0536403 64.2743382 21.9088982 61.7739597 21.6522775 58.8443077"></polygon>
                    <polygon id="路径-137备份" fill="#6076C7" points="0.443482703 45.6489123 1.31701502 61.9076283 12.0536403 64.2743382 12.0536403 59.2735812 10.9783523 58.8255666 10.9783523 62.5461055 2.6293881 60.2876917 1.91534348 49.3920429"></polygon>
                    <path d="M144.780783,44.9515648 C149.284564,31.4171001 157.220582,28.416341 168.588836,35.9492875 C186.268645,48.9334778 170.219946,78.4647265 154.528427,73.5986546 C138.836909,68.7325827 148.087753,72.0319064 141.544804,70.0952434 C139.548819,64.2292974 140.627479,55.8480712 144.780783,44.9515648 Z" id="路径-125备份" stroke="#DCE8FE" stroke-width="0.5" fill="url(#linearGradient-3)"></path>
                    <polygon id="路径-128备份" fill="#455AAA" points="83.3429404 23.6212901 73.9305186 25.3192614 51.2316884 22.8364406 60.6895244 20.4334587"></polygon>
                    <polygon id="路径-129备份" stroke="#DCE8FE" stroke-width="0.5" fill="url(#linearGradient-4)" points="73.9305186 25.3192614 74.5367228 55.730984 83.3429404 52.668315 83.3429404 23.6212901"></polygon>
                    <polygon id="路径-130备份" stroke="#DCE8FE" stroke-width="0.5" fill="url(#linearGradient-5)" points="50.7638217 22.87636 51.2316884 51.8086597 74.5367228 55.730984 73.9305186 25.3192614"></polygon>
                    <path d="M142.781903,54.6359574 L142.781903,70.5572708 L117.865777,68.4212994 L118.131307,57.9054998 L142.781903,54.6359574 Z" id="路径-122备份" stroke="#CDDBF6" stroke-width="0.640042246" fill="#0E2B61"></path>
                    <path d="M10.0630005,22.1995758 C12.776944,20.8724823 15.9093144,20.5733236 19.4579424,21.2878636 L19.4579424,21.2878636 L14.8388308,27.3839842 L24.9951356,57.1798402 C19.6423723,60.0617031 14.4578512,60.2981364 9.44152578,57.8717142 C5.42793501,55.9303198 2.24095971,51.2743588 0.946005335,45.7284658 C-0.229041167,40.6961016 0.154839558,34.9214308 2.91199225,29.7324581 C4.83887158,26.1060634 7.21847182,23.5905243 10.0630005,22.1995758 Z" id="路径-136备份" stroke="#CDDBF6" stroke-width="0.640042246" fill="#0F2D67"></path>
                    <path d="M28.6423837,46.3812402 C31.9216746,40.5914761 32.0748139,34.6376566 29.1018016,28.5197817 C24.6422831,19.3429695 15.1318697,20.2556078 10.6322287,24.1351298 C6.13258777,28.0146518 -0.39412434,38.9716481 4.1937191,48.7460845 C8.78156254,58.5205208 15.6033114,60.2526171 21.6522775,58.8443077 C25.6849216,57.9054348 28.9757651,57.1686061 31.524808,56.6338217 L31.524808,47.6704801 L27.8111659,48.7460845 L28.6423837,46.3812402 Z" id="路径-132备份" stroke="#0F2D67" stroke-width="0.5" fill="url(#linearGradient-6)"></path>
                </g>
                <text id="干燥床" font-family="SourceHanSansCN-Regular, Source Han Sans CN" font-size="10" font-weight="normal" fill="#F5F3FD">
                    <tspan x="91.9953991" y="39.5293932">干燥床</tspan>
                </text>
            </g>
        </g>
    </g>
</svg>