<?xml version="1.0" encoding="UTF-8"?>
<svg width="117px" height="122px" viewBox="0 0 117 122" version="1.1" xmlns="http://www.w3.org/2000/svg" xmlns:xlink="http://www.w3.org/1999/xlink">
    <title>he_3</title>
    <g id="页面-1" stroke="none" stroke-width="1" fill="none" fill-rule="evenodd">
        <g id="iPhone-SE" transform="translate(-570.000000, -423.000000)">
            <g id="he_3-2" transform="translate(570.000000, 423.000000)">
                <g id="he_3" transform="translate(0.864041, 2.804715)">
                    <g id="编组-22">
                        <rect id="矩形" stroke="#031D4F" stroke-width="0.5" fill="#DCE8FE" x="99.7348362" y="25.5831937" width="9.81440238" height="6.92781344"></rect>
                        <g id="编组-20" transform="translate(10.464747, 30.201736) scale(-1, 1) translate(-10.464747, -30.201736) translate(4.477401, 25.583194)">
                            <rect id="矩形备份-23" stroke="#031D4F" stroke-width="0.5" fill="#DCE8FE" transform="translate(4.907201, 4.618542) scale(-1, 1) translate(-4.907201, -4.618542) " x="0" y="1.15463557" width="9.81440238" height="6.92781344"></rect>
                            <rect id="矩形备份-25" fill="#515F95" transform="translate(10.894547, 4.618542) scale(-1, 1) translate(-10.894547, -4.618542) " x="9.81440238" y="0" width="2.1602885" height="9.23708459" rx="1.08014425"></rect>
                        </g>
                        <rect id="矩形" stroke="#031D4F" stroke-width="0.5" fill="#DCE8FE" x="16.6485621" y="0" width="3.5" height="13.8556269"></rect>
                        <rect id="矩形备份-29" stroke="#031D4F" stroke-width="0.5" fill="#DCE8FE" x="26.4629644" y="104.268553" width="3.5" height="13.8556269"></rect>
                        <rect id="矩形" fill="#455AAA" x="0.10018766" y="29.1321708" width="5.19586008" height="2.13913046"></rect>
                        <rect id="矩形备份-34" fill="#455AAA" x="110.629383" y="28.1822368" width="5.19586008" height="2.13913046"></rect>
                        <rect id="矩形备份-33" fill="#455AAA" x="0" y="92.0598096" width="5.19586008" height="2.13913046"></rect>
                        <rect id="矩形备份-35" stroke="#979797" stroke-width="0.577317787" fill="#D8D8D8" x="110.918042" y="92.3484685" width="4.6185423" height="1.56181267"></rect>
                        <rect id="矩形备份-27" stroke="#031D4F" stroke-width="0.5" fill="#DCE8FE" x="55.9061716" y="0" width="3.5" height="13.8556269"></rect>
                        <rect id="矩形备份-30" stroke="#031D4F" stroke-width="0.5" fill="#DCE8FE" x="66.3530096" y="104.268553" width="3.5" height="13.8556269"></rect>
                        <rect id="矩形备份-32" stroke="#031D4F" stroke-width="0.5" fill="#DCE8FE" x="46.0917692" y="104.268553" width="3.5" height="13.8556269"></rect>
                        <rect id="矩形备份-28" stroke="#031D4F" stroke-width="0.5" fill="#DCE8FE" x="95.3142103" y="0" width="3.5" height="13.8556269"></rect>
                        <rect id="矩形备份-31" stroke="#031D4F" stroke-width="0.5" fill="#DCE8FE" x="87.0993787" y="104.268553" width="2.23512878" height="13.8556269"></rect>
                        <rect id="矩形备份-21" stroke="#031D4F" stroke-width="0.5" fill="#DCE8FE" x="99.7348362" y="89.6654681" width="9.81440238" height="6.92781344"></rect>
                        <g id="编组-21" transform="translate(10.464747, 93.129375) scale(-1, 1) translate(-10.464747, -93.129375) translate(4.477401, 88.510832)">
                            <rect id="矩形备份-24" stroke="#031D4F" stroke-width="0.5" fill="#DCE8FE" transform="translate(4.907201, 4.618542) scale(-1, 1) translate(-4.907201, -4.618542) " x="0" y="1.15463557" width="9.81440238" height="6.92781344"></rect>
                            <rect id="矩形备份-26" fill="#515F95" transform="translate(10.894547, 4.618542) scale(-1, 1) translate(-10.894547, -4.618542) " x="9.81440238" y="0" width="2.1602885" height="9.23708459" rx="1.08014425"></rect>
                        </g>
                        <rect id="矩形备份-20" fill="#515F95" x="109.549239" y="24.4285581" width="2.1602885" height="9.23708459" rx="1.08014425"></rect>
                        <rect id="矩形备份-22" fill="#515F95" x="109.549239" y="88.5108325" width="2.1602885" height="9.23708459" rx="1.08014425"></rect>
                        <rect id="矩形" stroke="#CDDBF6" stroke-width="0.5" fill="#0F2D67" x="15.4733142" y="13.3023431" width="5.85049566" height="93.0254815" rx="2.92524783"></rect>
                        <rect id="矩形备份-11" stroke="#CDDBF6" stroke-width="0.5" fill="#0F2D67" x="25.2877166" y="13.3023431" width="5.85049566" height="93.0254815" rx="2.92524783"></rect>
                        <rect id="矩形备份-12" stroke="#CDDBF6" stroke-width="0.5" fill="#0F2D67" x="35.102119" y="13.3023431" width="5.85049566" height="93.0254815" rx="2.92524783"></rect>
                        <rect id="矩形备份-13" stroke="#CDDBF6" stroke-width="0.5" fill="#0F2D67" x="44.9165214" y="13.3023431" width="5.85049566" height="93.0254815" rx="2.92524783"></rect>
                        <rect id="矩形备份-14" stroke="#CDDBF6" stroke-width="0.5" fill="#0F2D67" x="54.7309238" y="13.3023431" width="5.85049566" height="93.0254815" rx="2.92524783"></rect>
                        <rect id="矩形备份-15" stroke="#CDDBF6" stroke-width="0.5" fill="#0F2D67" x="64.5453261" y="13.3023431" width="5.85049566" height="93.0254815" rx="2.92524783"></rect>
                        <rect id="矩形备份-16" stroke="#CDDBF6" stroke-width="0.5" fill="#0F2D67" x="74.3597285" y="13.3023431" width="5.85049566" height="93.0254815" rx="2.92524783"></rect>
                        <rect id="矩形备份-17" stroke="#CDDBF6" stroke-width="0.5" fill="#0F2D67" x="84.1741309" y="13.3023431" width="5.85049566" height="93.0254815" rx="2.92524783"></rect>
                        <rect id="矩形备份-19" stroke="#CDDBF6" stroke-width="0.5" fill="#0F2D67" x="93.9885333" y="13.3023431" width="5.85049566" height="93.0254815" rx="2.92524783"></rect>
                    </g>
                    <text id="he-3" font-family="SourceHanSansCN-Regular, Source Han Sans CN" font-size="23.0927115" font-weight="normal" fill="#DCE8FE">
                        <tspan x="35.9860919" y="64.2685534">he-3</tspan>
                    </text>
                </g>
            </g>
        </g>
    </g>
</svg>