<?xml version="1.0" encoding="UTF-8"?>
<svg width="117px" height="122px" viewBox="0 0 117 122" version="1.1" xmlns="http://www.w3.org/2000/svg" xmlns:xlink="http://www.w3.org/1999/xlink">
    <title>he_3</title>
    <g id="页面-1" stroke="none" stroke-width="1" fill="none" fill-rule="evenodd">
        <g id="iPhone-SE" transform="translate(-570.000000, -423.000000)">
            <g id="he_3" transform="translate(570.864041, 423.928896)">
                <g id="编组-22">
                    <rect id="矩形" stroke="#031D4F" stroke-width="0.5" fill="#DCE8FE" x="99.7348362" y="27.4590134" width="9.81440238" height="6.92781344"></rect>
                    <g id="编组-20" transform="translate(10.464747, 32.077556) scale(-1, 1) translate(-10.464747, -32.077556) translate(4.477401, 27.459013)">
                        <rect id="矩形备份-23" stroke="#031D4F" stroke-width="0.5" fill="#DCE8FE" transform="translate(4.907201, 4.618542) scale(-1, 1) translate(-4.907201, -4.618542) " x="0" y="1.15463557" width="9.81440238" height="6.92781344"></rect>
                        <rect id="矩形备份-25" fill="#515F95" transform="translate(10.894547, 4.618542) scale(-1, 1) translate(-10.894547, -4.618542) " x="9.81440238" y="0" width="2.1602885" height="9.23708459" rx="1.08014425"></rect>
                    </g>
                    <rect id="矩形" stroke="#031D4F" stroke-width="0.5" fill="#DCE8FE" x="17.2809977" y="1.07253586" width="2.23512878" height="13.8556269"></rect>
                    <rect id="矩形备份-29" stroke="#031D4F" stroke-width="0.5" fill="#DCE8FE" x="27.0954" y="106.144373" width="2.23512878" height="13.8556269"></rect>
                    <rect id="矩形" fill="#455AAA" x="0.10018766" y="31.0079904" width="5.19586008" height="2.13913046"></rect>
                    <rect id="矩形备份-34" fill="#455AAA" x="110.629383" y="30.0580564" width="5.19586008" height="2.13913046"></rect>
                    <rect id="矩形备份-33" fill="#455AAA" x="0" y="93.9356292" width="5.19586008" height="2.13913046"></rect>
                    <rect id="矩形备份-35" stroke="#979797" stroke-width="0.577317787" fill="#D8D8D8" x="110.918042" y="94.2242881" width="4.6185423" height="1.56181267"></rect>
                    <rect id="矩形备份-27" stroke="#031D4F" stroke-width="0.5" fill="#DCE8FE" x="56.5386072" y="0" width="2.23512878" height="13.8556269"></rect>
                    <rect id="矩形备份-30" stroke="#031D4F" stroke-width="0.5" fill="#DCE8FE" x="67.470574" y="106.144373" width="2.23512878" height="13.8556269"></rect>
                    <rect id="矩形备份-32" stroke="#031D4F" stroke-width="0.5" fill="#DCE8FE" x="46.7242048" y="106.144373" width="2.23512878" height="13.8556269"></rect>
                    <rect id="矩形备份-28" stroke="#031D4F" stroke-width="0.5" fill="#DCE8FE" x="95.3142103" y="0.578618139" width="2.23512878" height="13.8556269"></rect>
                    <rect id="矩形备份-31" stroke="#031D4F" stroke-width="0.5" fill="#DCE8FE" x="87.0993787" y="106.144373" width="2.23512878" height="13.8556269"></rect>
                    <rect id="矩形备份-21" stroke="#031D4F" stroke-width="0.5" fill="#DCE8FE" x="99.7348362" y="91.5412877" width="9.81440238" height="6.92781344"></rect>
                    <g id="编组-21" transform="translate(10.464747, 95.005194) scale(-1, 1) translate(-10.464747, -95.005194) translate(4.477401, 90.386652)">
                        <rect id="矩形备份-24" stroke="#031D4F" stroke-width="0.5" fill="#DCE8FE" transform="translate(4.907201, 4.618542) scale(-1, 1) translate(-4.907201, -4.618542) " x="0" y="1.15463557" width="9.81440238" height="6.92781344"></rect>
                        <rect id="矩形备份-26" fill="#515F95" transform="translate(10.894547, 4.618542) scale(-1, 1) translate(-10.894547, -4.618542) " x="9.81440238" y="0" width="2.1602885" height="9.23708459" rx="1.08014425"></rect>
                    </g>
                    <rect id="矩形备份-20" fill="#515F95" x="109.549239" y="26.3043778" width="2.1602885" height="9.23708459" rx="1.08014425"></rect>
                    <rect id="矩形备份-22" fill="#515F95" x="109.549239" y="90.3866522" width="2.1602885" height="9.23708459" rx="1.08014425"></rect>
                    <rect id="矩形" stroke="#CDDBF6" stroke-width="0.5" fill="#0F2D67" x="15.4733142" y="15.1781628" width="5.85049566" height="93.0254815" rx="2.92524783"></rect>
                    <rect id="矩形备份-11" stroke="#CDDBF6" stroke-width="0.5" fill="#0F2D67" x="25.2877166" y="15.1781628" width="5.85049566" height="93.0254815" rx="2.92524783"></rect>
                    <rect id="矩形备份-12" stroke="#CDDBF6" stroke-width="0.5" fill="#0F2D67" x="35.102119" y="15.1781628" width="5.85049566" height="93.0254815" rx="2.92524783"></rect>
                    <rect id="矩形备份-13" stroke="#CDDBF6" stroke-width="0.5" fill="#0F2D67" x="44.9165214" y="15.1781628" width="5.85049566" height="93.0254815" rx="2.92524783"></rect>
                    <rect id="矩形备份-14" stroke="#CDDBF6" stroke-width="0.5" fill="#0F2D67" x="54.7309238" y="15.1781628" width="5.85049566" height="93.0254815" rx="2.92524783"></rect>
                    <rect id="矩形备份-15" stroke="#CDDBF6" stroke-width="0.5" fill="#0F2D67" x="64.5453261" y="15.1781628" width="5.85049566" height="93.0254815" rx="2.92524783"></rect>
                    <rect id="矩形备份-16" stroke="#CDDBF6" stroke-width="0.5" fill="#0F2D67" x="74.3597285" y="15.1781628" width="5.85049566" height="93.0254815" rx="2.92524783"></rect>
                    <rect id="矩形备份-17" stroke="#CDDBF6" stroke-width="0.5" fill="#0F2D67" x="84.1741309" y="15.1781628" width="5.85049566" height="93.0254815" rx="2.92524783"></rect>
                    <rect id="矩形备份-19" stroke="#CDDBF6" stroke-width="0.5" fill="#0F2D67" x="93.9885333" y="15.1781628" width="5.85049566" height="93.0254815" rx="2.92524783"></rect>
                </g>
                <text id="he-3" font-family="SourceHanSansCN-Regular, Source Han Sans CN" font-size="23.0927115" font-weight="normal" fill="#DCE8FE">
                    <tspan x="35.9860919" y="66.1443731">he-3</tspan>
                </text>
            </g>
        </g>
    </g>
</svg>