<?xml version="1.0" encoding="UTF-8"?>
<svg width="115px" height="66px" viewBox="0 0 115 66" version="1.1" xmlns="http://www.w3.org/2000/svg" xmlns:xlink="http://www.w3.org/1999/xlink">
    <title>lxj</title>
    <defs>
        <linearGradient x1="50%" y1="0%" x2="50%" y2="100%" id="linearGradient-1">
            <stop stop-color="#133470" offset="0%"></stop>
            <stop stop-color="#0F2D67" offset="100%"></stop>
        </linearGradient>
        <linearGradient x1="38.3507892%" y1="-8.61696451%" x2="52.0475082%" y2="88.914845%" id="linearGradient-2">
            <stop stop-color="#F0F5FF" offset="0%"></stop>
            <stop stop-color="#DCE8FE" offset="100%"></stop>
        </linearGradient>
        <linearGradient x1="43.99345%" y1="50%" x2="54.9525914%" y2="69.993604%" id="linearGradient-3">
            <stop stop-color="#FBFAFF" offset="0%"></stop>
            <stop stop-color="#A2B8F6" offset="100%"></stop>
        </linearGradient>
        <linearGradient x1="13.1393437%" y1="31.9083928%" x2="85.7861695%" y2="72.5555369%" id="linearGradient-4">
            <stop stop-color="#FBFAFF" offset="0%"></stop>
            <stop stop-color="#C6D6FE" offset="100%"></stop>
        </linearGradient>
        <linearGradient x1="-9.96780258%" y1="40.7358911%" x2="89.4273039%" y2="51.9230804%" id="linearGradient-5">
            <stop stop-color="#556DCB" offset="0%"></stop>
            <stop stop-color="#3A50A3" offset="100%"></stop>
        </linearGradient>
        <path d="M68.5556843,4.46861183 L67.5266671,1.59170173 L52.7119193,0 L24.7667506,3.98192249 L0.625199029,18.2203777 L0,27.4858241 C9.34937581,27.8652652 14.0240637,28.0549858 14.0240637,28.0549858 C14.0240637,28.0549858 14.2338014,31.1903471 14.6532768,37.4610697 L43.2654888,40.9902203 L44.7355279,17.2325204 L52.9297609,1.83834948 L68.5556843,4.46861183 Z" id="path-6"></path>
        <linearGradient x1="12.793301%" y1="37.897793%" x2="79.4363846%" y2="59.9198836%" id="linearGradient-8">
            <stop stop-color="#FBFAFF" offset="0%"></stop>
            <stop stop-color="#D2D6F5" offset="95.1342094%"></stop>
            <stop stop-color="#D2D6F5" offset="100%"></stop>
        </linearGradient>
        <linearGradient x1="146.548162%" y1="35.7819947%" x2="46.2542572%" y2="56.3906377%" id="linearGradient-9">
            <stop stop-color="#FBFAFF" offset="0%"></stop>
            <stop stop-color="#D2D6F5" offset="100%"></stop>
        </linearGradient>
        <filter x="-81.6%" y="-50.1%" width="263.1%" height="200.3%" filterUnits="objectBoundingBox" id="filter-10">
            <feGaussianBlur stdDeviation="5" in="SourceGraphic"></feGaussianBlur>
        </filter>
        <linearGradient x1="50%" y1="0%" x2="50%" y2="100%" id="linearGradient-11">
            <stop stop-color="#6B82C3" offset="0%"></stop>
            <stop stop-color="#586CB4" offset="0%"></stop>
            <stop stop-color="#394B91" offset="100%"></stop>
        </linearGradient>
        <linearGradient x1="50%" y1="0%" x2="50%" y2="100%" id="linearGradient-12">
            <stop stop-color="#526EB7" offset="0%"></stop>
            <stop stop-color="#293B81" offset="100%"></stop>
        </linearGradient>
        <linearGradient x1="9.60158268%" y1="36.4076551%" x2="72.1280815%" y2="64.0407606%" id="linearGradient-13">
            <stop stop-color="#3B509E" offset="0%"></stop>
            <stop stop-color="#455AAA" offset="100%"></stop>
        </linearGradient>
        <linearGradient x1="46.0836914%" y1="19.6298629%" x2="52.1451434%" y2="81.3720573%" id="linearGradient-14">
            <stop stop-color="#3B509E" offset="0%"></stop>
            <stop stop-color="#455AAA" offset="100%"></stop>
        </linearGradient>
    </defs>
    <g id="页面-1" stroke="none" stroke-width="1" fill="none" fill-rule="evenodd">
        <g id="iPhone-SE" transform="translate(-201.000000, -456.000000)">
            <g id="lxj" transform="translate(201.659749, 456.770607)">
                <g id="编组-207" transform="translate(-0.000000, 0.000000)">
                    <path d="M71.063269,6.62745585 L61.5608586,3.53694162 C53.0328579,6.04001471 48.7688576,7.80552842 48.7688576,8.83348275 C48.7688576,9.86143707 48.474834,17.3479535 47.8867867,31.2930321 C50.131436,39.4934315 51.2537607,43.5936313 51.2537607,43.5936313 C51.2537607,43.5936313 54.7039001,45.02549 54.7039001,44.3095606 C54.7039001,43.5936313 56.8141045,41.8594663 58.1445662,40.3757871 C59.4750279,38.8921079 65.42432,20.8045052 65.42432,19.6308265 C65.42432,18.8483741 65.9896483,15.8267459 67.1203049,10.5659419 L71.063269,6.62745585 Z" id="路径-117" stroke="#979797" stroke-width="0.5" fill="#2F3E78"></path>
                    <path d="M102.026776,4.15613215 L97.3336374,44.5815349 L83.027115,43.3284545 C74.1732312,42.6338349 68.0931577,42.1448907 64.7868951,41.8616157 C62.7262462,41.6850627 61.3177834,41.5818065 60.1927118,41.4993277 C59.4068263,41.4417146 58.7595558,41.3942729 58.1258422,41.3391062 C57.3142691,41.2645732 56.8099457,41.2122261 56.2787109,41.148123 C54.0951282,34.2756416 53.551471,28.0561421 54.6564024,22.4893976 C55.7619136,16.9197325 58.5190454,12.0066787 62.9240951,7.74826896 L62.9240951,7.74826896 L102.026776,4.15613215 Z" id="路径-107" stroke="#CDDBF6" stroke-width="0.531983165" fill="url(#linearGradient-1)"></path>
                    <polygon id="路径-108" stroke="#031D4F" stroke-width="0.5" fill="url(#linearGradient-2)" points="83.0063109 30.0892351 83.0063109 61.5008791 94.7350322 63.4720594 95.3848534 30.0892351"></polygon>
                    <polygon id="路径-109" stroke="#0F2D67" stroke-width="0.5" fill="url(#linearGradient-3)" points="107.90427 44.8690752 107.90427 51.579539 94.7350322 64 95.3848534 26.0044178"></polygon>
                    <polygon id="路径-110" stroke="#0F2D67" stroke-width="0.5" fill="url(#linearGradient-4)" points="56.0777468 41.3931715 56.7344478 56.7191567 83.0063109 61.5008791 83.0063109 43.5936313"></polygon>
                    <polygon id="路径-111" fill="url(#linearGradient-5)" points="58.1445662 44.3095606 58.4159919 55.9777421 81.7069481 59.2248054 81.7069481 46.7806472"></polygon>
                    <polygon id="路径-112" fill="#F5F3FD" points="60.3611365 44.7390558 60.2953995 56.1055382 61.5039735 56.2424658 61.5608586 44.8663528"></polygon>
                    <polygon id="路径-112备份" fill="#F5F3FD" points="66.5204439 45.3204589 66.5204439 56.9108475 67.7201659 57.1328298 67.7201659 45.4902982"></polygon>
                    <polygon id="路径-112备份-2" fill="#F5F3FD" points="75.867115 46.2241051 75.867115 58.274806 77.066837 58.4603764 77.066837 46.3654472"></polygon>
                    <g id="编组-38" transform="translate(2.507585, 2.603411)">
                        <mask id="mask-7" fill="white">
                            <use xlink:href="#path-6"></use>
                        </mask>
                        <use id="路径-113" stroke="#DCE8FE" stroke-width="0.5" fill="#F5F3FD" xlink:href="#path-6"></use>
                        <path d="M0.625199029,18.2203777 L44.7355279,17.2325204 L46.7733641,36.3150378 C46.2730388,43.5425139 45.8083181,47.1562519 45.379202,47.1562519 C44.9500859,47.1562519 36.6166692,46.380514 20.378952,44.8290381 L11.3467259,40.1097051 C11.652732,40.1149798 11.4222233,39.6749983 10.6551999,38.7897605 C9.50466479,37.4619039 5.81046962,32.1943862 4.05899047,32.1943862 C2.30751131,32.1943862 -1.325989,30.4902542 -1.325989,30.4902542 C-1.325989,30.4902542 -7.75724055,26.6739933 -6.63837293,24.9548293 C-5.89246118,23.80872 -5.16801985,22.0689987 -4.46504896,19.7356654 L0.625199029,18.2203777 Z" id="路径-38" fill="url(#linearGradient-8)" mask="url(#mask-7)"></path>
                        <polygon id="路径-39" fill="url(#linearGradient-9)" mask="url(#mask-7)" points="44.7355279 17.2325204 0.625199029 18.2203777 23.8829799 1.83834948 52.1963153 -1.28190876 52.7119193 -2.22044605e-16 52.7119193 3.98942106"></polygon>
                        <path d="M39.0900692,17.0282657 L38.4680389,37.3033368 L27.4762927,37.3033368 C26.1603587,39.7495436 25.6787309,41.3799458 26.0314092,42.1945432 C26.5604268,43.4164394 37.1333297,46.9519972 37.1333297,46.9519972 C37.1333297,46.9519972 42.1714797,45.8845536 42.1714797,43.9729816 C42.1714797,42.0614095 43.5136997,35.9316882 44.0453027,33.0576302 C44.5769058,30.1835722 43.5136997,25.4769342 44.0453027,24.7505746 C44.3997048,24.2663349 44.3997048,22.0215177 44.0453027,18.016123 L39.0900692,17.0282657 Z" id="路径-40" fill="#7B9CEF" filter="url(#filter-10)" mask="url(#mask-7)"></path>
                    </g>
                    <path d="M45.7730735,43.5936313 L55.4373456,41.7862252 C52.0911405,39.2879268 50.9076275,31.8089865 51.8868068,19.3494044 C54.4839632,13.6083039 58.2826763,9.23782043 63.2829463,6.23795399 L55.4373456,4.44176047 L47.2431126,19.8359314 L45.7730735,43.5936313 Z" id="路径-114" stroke="#455AAA" stroke-width="0.5" fill="url(#linearGradient-11)"></path>
                    <polygon id="路径-115" stroke="#9EB7F4" stroke-width="0.5" fill="url(#linearGradient-12)" points="56.7344478 56.7191567 45.7730735 60.9938121 45.7730735 43.5936313 56.0777468 41.3931715"></polygon>
                    <path d="M1.96235732,35.1064558 L0.342201873,35.1064558 L0,38.0408423 L1.03954081,38.0408423 L0.342201873,42.4813477 L1.96235732,43.0346131 L1.96235732,44.3095606 L3.33274224,44.3095606 L4.54510533,44.8690752 C6.40691173,43.541493 7.33781494,43.116345 7.33781494,43.5936313 C7.33781494,44.0709175 6.7056328,44.4960655 5.44126851,44.8690752 L4.54510533,46.5931488 L1.03954081,46.5931488 L0.342201873,47.3460807 L4.54510533,48.51812 L5.11489185,51.9911134 L45.7730735,61.1355383 L45.7730735,43.5936313 L17.2249658,39.9717196 L16.9044948,30.5135143 L5.23822233,30.5135143 L1.96235732,35.1064558 Z" id="路径-116" fill="url(#linearGradient-13)"></path>
                    <path d="M106.929392,1.24097348 C106.93152,3.6965446 106.422893,5.67567539 105.40351,7.17836587 C104.384127,8.68105636 105.412398,10.3140497 108.488323,12.0773458 C110.921916,8.62651122 112.138713,5.01438712 112.138713,1.24097348 C110.023898,1.15643008 108.287458,1.15643008 106.929392,1.24097348 Z" id="路径-106" stroke="#0F2D67" stroke-width="0.5" fill="#F5F3FD"></path>
                    <rect id="矩形" fill="#515F95" x="105.022901" y="0" width="9.15097094" height="1.17756593" rx="0.588782966"></rect>
                    <ellipse id="椭圆形" stroke="#FFFFFF" stroke-width="0.5" fill="url(#linearGradient-14)" cx="102.864012" cy="27.5582403" rx="7.22915894" ry="23.7712987"></ellipse>
                </g>
                <text id="离心机" font-family="SourceHanSansCN-Regular, Source Han Sans CN" font-size="6.4" font-weight="normal" fill="#F5F3FD">
                    <tspan x="63.6829463" y="24.8390764">离心机</tspan>
                </text>
            </g>
        </g>
    </g>
</svg>