<?xml version="1.0" encoding="UTF-8"?>
<svg width="50px" height="132px" viewBox="0 0 50 132" version="1.1" xmlns="http://www.w3.org/2000/svg" xmlns:xlink="http://www.w3.org/1999/xlink">
    <title>ev_201</title>
    <defs>
        <linearGradient x1="12.793301%" y1="45.5170554%" x2="79.4363846%" y2="53.6745602%" id="linearGradient-1">
            <stop stop-color="#FBFAFF" offset="0%"></stop>
            <stop stop-color="#D2D6F5" offset="100%"></stop>
        </linearGradient>
        <polygon id="path-2" points="48.5024716 0 31.490125 16.4979765 15.490125 16.4979765 0 0"></polygon>
        <filter x="-85.3%" y="-96.2%" width="270.7%" height="292.4%" filterUnits="objectBoundingBox" id="filter-4">
            <feGaussianBlur stdDeviation="8" in="SourceGraphic"></feGaussianBlur>
        </filter>
        <filter x="-21.3%" y="-24.1%" width="142.7%" height="148.1%" filterUnits="objectBoundingBox" id="filter-5">
            <feGaussianBlur stdDeviation="2" in="SourceGraphic"></feGaussianBlur>
        </filter>
        <linearGradient x1="12.793301%" y1="42.8077849%" x2="79.4363846%" y2="55.8952831%" id="linearGradient-6">
            <stop stop-color="#FBFAFF" offset="0%"></stop>
            <stop stop-color="#D2D6F5" offset="100%"></stop>
        </linearGradient>
        <polygon id="path-7" points="9.49730624 0 0 20.6878437 48.0174137 20.6878437 36.4119907 0"></polygon>
        <filter x="-110.4%" y="-86.2%" width="320.7%" height="272.3%" filterUnits="objectBoundingBox" id="filter-9">
            <feGaussianBlur stdDeviation="8" in="SourceGraphic"></feGaussianBlur>
        </filter>
        <filter x="-27.6%" y="-21.5%" width="155.2%" height="143.1%" filterUnits="objectBoundingBox" id="filter-10">
            <feGaussianBlur stdDeviation="2" in="SourceGraphic"></feGaussianBlur>
        </filter>
        <linearGradient x1="25.9620207%" y1="5.35481295%" x2="50%" y2="100%" id="linearGradient-11">
            <stop stop-color="#102E68" offset="0%"></stop>
            <stop stop-color="#0F2D67" offset="100%"></stop>
        </linearGradient>
    </defs>
    <g id="页面-1" stroke="none" stroke-width="1" fill="none" fill-rule="evenodd">
        <g id="iPhone-SE" transform="translate(-222.000000, -230.000000)">
            <g id="ev_201" transform="translate(222.761983, 230.167083)">
                <g id="编组-28" transform="translate(0.000000, 94.902100)">
                    <mask id="mask-3" fill="white">
                        <use xlink:href="#path-2"></use>
                    </mask>
                    <use id="路径-2" fill="url(#linearGradient-1)" xlink:href="#path-2"></use>
                    <path d="M23.6345115,17.065735 L34.5083651,-0.837591079 L51.7550964,-7.87583475 C50.9996118,-1.03790268 50.6218694,2.38106336 50.6218694,2.38106336 C50.6218694,2.38106336 37.694804,14.9202312 37.694804,14.9202312 C37.694804,14.9202312 35.1137096,15.6353991 29.951521,17.065735 L23.6345115,17.065735 Z" id="路径-30" fill="#7B9CEF" filter="url(#filter-4)" mask="url(#mask-3)"></path>
                    <path d="M34.4527613,16.7979765 L45.3266149,-1.10534953 L62.5733462,-8.1435932 C61.8178616,-1.30566113 61.4401192,2.1133049 61.4401192,2.1133049 C61.4401192,2.1133049 48.5130538,14.6524727 48.5130538,14.6524727 C48.5130538,14.6524727 45.9319594,15.3676406 40.7697708,16.7979765 L34.4527613,16.7979765 Z" id="路径-30" fill="#E2EAFC" filter="url(#filter-5)" mask="url(#mask-3)"></path>
                </g>
                <g id="编组-27" transform="translate(0.180276, 4.492481)">
                    <mask id="mask-8" fill="white">
                        <use xlink:href="#path-7"></use>
                    </mask>
                    <use id="路径" fill="url(#linearGradient-6)" xlink:href="#path-7"></use>
                    <polygon id="路径-3" fill="#7B9CEF" filter="url(#filter-9)" mask="url(#mask-8)" points="29.7724855 -1.24534459 42.0931836 23.3967542 51.5201926 18.3211474 45.8912505 5.08862816 40.6463391 -4.45933171"></polygon>
                    <polygon id="路径-3" fill="#E2EAFC" filter="url(#filter-10)" mask="url(#mask-8)" points="35.0121363 -2.3652877 47.3328344 22.2768111 56.7598434 17.2012043 51.1309013 3.96868506 45.8859899 -5.57927481"></polygon>
                </g>
                <rect id="矩形" fill="#455AAA" x="15.490125" y="111.400076" width="16" height="20.2657573"></rect>
                <rect id="矩形" fill="#515F95" x="8.62525202" y="0" width="28.9542921" height="4.49248058" rx="2.24624029"></rect>
                <g id="编组" transform="translate(8.625252, 10.807667)" stroke-width="0.5">
                    <polygon id="路径-5" stroke="#031D4F" fill="#031D4F" points="0 7.33287569e-15 0 6.56384323 28.7146335 6.56384323 28.7146335 1.16597278e-14"></polygon>
                    <polyline id="路径-6" stroke="#F5F3FD" points="1.23442041 0.254959224 5.62817013 6.56384323 9.65214668 -4.55458117e-17 14.3573167 6.33781635 17.946296 0 22.1806761 6.014913 27.1926149 0"></polyline>
                    <polyline id="路径-7" stroke="#F5F3FD" points="27.6445188 6.56384323 22.301798 0 18.2805014 6.56384323 13.7620265 0 10.023494 6.56384323 5.66426963 0 1.23442041 6.56384323"></polyline>
                </g>
                <rect id="矩形" stroke="#CDDBF6" stroke-width="0.914346065" fill="url(#linearGradient-11)" x="0.457173033" y="25.8468789" width="47.2833435" height="68.5980476"></rect>
                <text id="EV-201" font-family="SourceHanSansCN-Regular, Source Han Sans CN" font-size="10" font-weight="normal" fill="#F5F3FD">
                    <!-- <tspan x="7.75598671" y="60.1459027">EV-201</tspan> -->
                </text>
            </g>
        </g>
    </g>
</svg>