<?xml version="1.0" encoding="UTF-8"?>
<svg width="188px" height="73px" viewBox="0 0 188 73" version="1.1" xmlns="http://www.w3.org/2000/svg" xmlns:xlink="http://www.w3.org/1999/xlink">
    <title>lyq</title>
    <defs>
        <linearGradient x1="4.79009922%" y1="41.5737163%" x2="74.7371491%" y2="57.3475353%" id="linearGradient-1">
            <stop stop-color="#102D67" offset="0%"></stop>
            <stop stop-color="#0F2D67" offset="100%"></stop>
        </linearGradient>
        <path d="M167.638203,0 L90.174779,7.05772909 L16.1453752,14.5918143 C12.8429511,15.3917861 10.4369868,16.2474228 8.92748222,17.1587244 C4.59577737,19.773814 0.93971671,25.5647183 0.210282893,29.8833765 C-0.900438576,36.459472 2.38899169,42.5161455 10.0785737,48.053397 L169.432516,69.5552309 L167.638203,0 Z" id="path-2"></path>
        <filter x="-4.4%" y="-10.8%" width="108.9%" height="121.6%" filterUnits="objectBoundingBox" id="filter-4">
            <feGaussianBlur stdDeviation="4" in="SourceAlpha" result="shadowBlurInner1"></feGaussianBlur>
            <feOffset dx="0" dy="-2" in="shadowBlurInner1" result="shadowOffsetInner1"></feOffset>
            <feComposite in="shadowOffsetInner1" in2="SourceAlpha" operator="arithmetic" k2="-1" k3="1" result="shadowInnerInner1"></feComposite>
            <feColorMatrix values="0 0 0 0 0.223639505   0 0 0 0 0.364472506   0 0 0 0 0.646138509  0 0 0 1 0" type="matrix" in="shadowInnerInner1" result="shadowMatrixInner1"></feColorMatrix>
            <feGaussianBlur stdDeviation="6" in="SourceAlpha" result="shadowBlurInner2"></feGaussianBlur>
            <feOffset dx="0" dy="3" in="shadowBlurInner2" result="shadowOffsetInner2"></feOffset>
            <feComposite in="shadowOffsetInner2" in2="SourceAlpha" operator="arithmetic" k2="-1" k3="1" result="shadowInnerInner2"></feComposite>
            <feColorMatrix values="0 0 0 0 0.0256853661   0 0 0 0 0.139597769   0 0 0 0 0.356031335  0 0 0 1 0" type="matrix" in="shadowInnerInner2" result="shadowMatrixInner2"></feColorMatrix>
            <feMerge>
                <feMergeNode in="shadowMatrixInner1"></feMergeNode>
                <feMergeNode in="shadowMatrixInner2"></feMergeNode>
            </feMerge>
        </filter>
        <filter x="-77.5%" y="-66.8%" width="255.0%" height="233.5%" filterUnits="objectBoundingBox" id="filter-5">
            <feGaussianBlur stdDeviation="10" in="SourceGraphic"></feGaussianBlur>
        </filter>
        <linearGradient x1="19.7740267%" y1="22.6435366%" x2="50%" y2="93.8793066%" id="linearGradient-6">
            <stop stop-color="#CAD5E6" offset="0%"></stop>
            <stop stop-color="#9AABC8" offset="100%"></stop>
        </linearGradient>
        <linearGradient x1="13.6031139%" y1="47.4346715%" x2="80.521653%" y2="54.8075598%" id="linearGradient-7">
            <stop stop-color="#EFF1FE" offset="0%"></stop>
            <stop stop-color="#BECDF9" offset="100%"></stop>
        </linearGradient>
        <linearGradient x1="92.9926192%" y1="62.6998756%" x2="28.9111547%" y2="34.7710965%" id="linearGradient-8">
            <stop stop-color="#6077CF" offset="0%"></stop>
            <stop stop-color="#455AAA" offset="100%"></stop>
        </linearGradient>
        <linearGradient x1="92.9926192%" y1="62.6998756%" x2="28.9111547%" y2="34.7710965%" id="linearGradient-9">
            <stop stop-color="#6077CF" offset="0%"></stop>
            <stop stop-color="#455AAA" offset="100%"></stop>
        </linearGradient>
        <linearGradient x1="41.507219%" y1="38.1519294%" x2="57.1218652%" y2="72.203904%" id="linearGradient-10">
            <stop stop-color="#EFF1FE" offset="0%"></stop>
            <stop stop-color="#BECDF9" offset="100%"></stop>
        </linearGradient>
        <linearGradient x1="-21.9959742%" y1="12.0095112%" x2="70.8487482%" y2="81.1483168%" id="linearGradient-11">
            <stop stop-color="#F0F5FF" offset="0%"></stop>
            <stop stop-color="#C9DBFD" offset="100%"></stop>
        </linearGradient>
    </defs>
    <g id="页面-1" stroke="none" stroke-width="1" fill="none" fill-rule="evenodd">
        <g id="iPhone-SE" transform="translate(-735.000000, -464.000000)">
            <g id="lyq-2" transform="translate(735.000000, 464.000000)">
                <g id="lyq" transform="translate(0.728554, 0.770607)">
                    <g id="编组-24">
                        <g id="编组-39">
                            <mask id="mask-3" fill="white">
                                <use xlink:href="#path-2"></use>
                            </mask>
                            <g id="路径-21">
                                <use fill="url(#linearGradient-1)" fill-rule="evenodd" xlink:href="#path-2"></use>
                                <use fill="black" fill-opacity="1" filter="url(#filter-4)" xlink:href="#path-2"></use>
                                <path stroke="#CDDBF6" stroke-width="0.5" d="M167.395167,0.273178619 L169.175029,69.2682223 L10.1740351,47.8140122 C6.39180778,45.0824133 3.68631256,42.2257169 2.0640047,39.2386376 C0.447257946,36.2617977 -0.089162382,33.1573658 0.456791399,29.9250125 C1.1763786,25.6646518 4.78362702,19.9524332 9.05668937,17.3727467 C10.5487733,16.471962 12.9268396,15.6295959 16.187672,14.8388011 L16.187672,14.8388011 L90.1974627,7.30669787 L167.395167,0.273178619 Z" stroke-linejoin="square"></path>
                            </g>
                            <path d="M29.7211958,17.1035589 L15.688271,18.2112644 C12.3142219,19.4007758 10.6271973,20.364984 10.6271973,21.103889 C10.6271973,22.2122465 9.40766047,23.6231903 9.40766047,25.1055177 C9.40766047,26.587845 7.88212787,27.1180431 7.88212787,28.8853488 C7.88212787,30.6526544 9.14740831,37.3442572 10.6271973,40.0826842 C12.1069863,42.8211112 14.4388512,45.0423685 14.4388512,46.2835587 C14.4388512,47.524749 16.9376908,52.3213446 15.688271,52.3213446 C14.4388512,52.3213446 14.5697708,52.3213446 12.5984841,52.3213446 C10.6271973,52.3213446 -5.40448177,50.3707803 -5.40448177,45.2267323 C-5.40448177,40.0826842 -9.00043538,28.4298153 -9.00043538,27.3257062 C-9.00043538,26.2215971 -4.97536296,16.6074851 -2.48768148,14.684437 C-4.08562073e-14,12.761389 12.5984841,7.39015168 12.5984841,7.39015168 C12.5984841,7.39015168 17.7896723,7.39015168 28.1720486,7.39015168 L29.7211958,9.18443705 L29.7211958,17.1035589 Z" id="路径-41" fill="#081A3F" opacity="0.475537981" filter="url(#filter-5)" mask="url(#mask-3)"></path>
                        </g>
                        <polygon id="路径-23" stroke="#031D4F" stroke-width="0.5" fill="#94A4C3" points="66.935065 2.93595942 69.4673431 1.21780041 71.243897 5.85111408 68.1962334 6.78657933"></polygon>
                        <polygon id="路径-24" stroke="#031D4F" stroke-width="0.5" fill="url(#linearGradient-6)" points="69.4673431 1.21780041 70.6172629 1.21780041 77.7088903 7.12201322 78.2815579 9.26445461 74.8480512 9.64865976 69.28188 4.50045491"></polygon>
                        <path d="M107.278292,5.7785862 C99.7802205,10.6514438 95.6138883,17.6873889 94.779295,26.8864212 C93.9447017,36.0854536 96.4081054,47.2880675 102.169506,60.4942628" id="路径-25" stroke="#F5F3FD" stroke-width="0.5"></path>
                        <line x1="95.4126594" y1="24.0151556" x2="153.859284" y2="24.0151556" id="路径-26" stroke="#F5F3FD" stroke-width="0.5"></line>
                        <path d="M92.2781522,7.08351745 C78.2553154,8.41497621 71.243897,15.491336 71.243897,28.3125967 C71.243897,41.1338575 73.2865196,50.6943372 77.3717647,56.9940359" id="路径-27" stroke="#F5F3FD" stroke-width="0.5"></path>
                        <path d="M38.0046958,12.761389 C28.4922546,18.6642917 24.6790343,26.4515592 26.5650349,36.1231918 C28.4510355,45.7948243 31.4181578,50.9123016 35.4664018,51.4756238" id="路径-28" stroke="#F5F3FD" stroke-width="0.5"></path>
                        <polyline id="路径-29" stroke="#031D4F" stroke-width="0.5" fill="url(#linearGradient-7)" points="110.074932 61.7560293 110.074932 66.4085657 122.923571 68.0556195 123.613247 63.6033773"></polyline>
                        <rect id="矩形" fill="#455AAA" transform="translate(115.813785, 68.808499) rotate(8.000000) translate(-115.813785, -68.808499) " x="107.561469" y="66.7454196" width="16.5046311" height="4.12615777" rx="2.06307888"></rect>
                        <polygon id="路径-31" fill="url(#linearGradient-8)" points="22.3714505 49.7490608 24.9532924 54.8936285 30.9891021 53.5159244 28.1529973 50.4972157"></polygon>
                        <polygon id="路径-31备份-3" fill="url(#linearGradient-8)" points="56.9834483 54.421752 59.5652902 59.5663198 65.6010999 58.1886157 62.7649951 55.1699069"></polygon>
                        <polygon id="路径-31备份-4" fill="url(#linearGradient-9)" points="72.1360807 56.4189085 74.2442927 60.6197233 79.1728542 59.4947542 76.857023 57.029817"></polygon>
                        <ellipse id="椭圆形" stroke="#DCE8FE" stroke-width="0.5" fill="url(#linearGradient-10)" cx="169.432516" cy="34.7776155" rx="16.7993566" ry="34.7776155"></ellipse>
                        <polygon id="路径-22" stroke="#031D4F" stroke-width="0.5" fill="url(#linearGradient-11)" points="74.8480512 11.1156174 74.4955036 9.49896442 66.935065 2.93595942 66.3864746 3.21714682 69.1533326 11.8443439"></polygon>
                    </g>
                    <text id="冷凝器" font-family="SourceHanSansCN-Regular, Source Han Sans CN" font-size="11.7" font-weight="normal" fill="#DCE8FE">
                        <tspan x="107.728292" y="19.184437">冷凝器</tspan>
                    </text>
                </g>
            </g>
        </g>
    </g>
</svg>